{"title":"Angoor (1982) Hindi DvD Rip Xvid XMR@Mastitorrents","uid":5856936,"size":972695231,"categoryP":"video","categoryS":"movies","magnet":"?xt=urn:btih:a2942b8698b95632488a446536744f53bebbbf49&amp;dn=Angoor+%281982%29+Hindi+DvD+Rip+Xvid+XMR%40Mastitorrents&amp;tr=udp%3A%2F%2Ftracker.openbittorrent.com%3A80&amp;tr=udp%3A%2F%2Fopen.demonii.com%3A1337&amp;tr=udp%3A%2F%2Ftracker.coppersurfer.tk%3A6969&amp;tr=udp%3A%2F%2Fexodus.desync.com%3A6969","seeders":4,"leechers":3,"uploader":"amanrulz","files":4,"time":1285661323,"description":"mastitorrents.com\n &lt;a href=&quot;\nhttp://mastitorrents.com/forums/index.php&quot; rel=&quot;nofollow&quot; target=&quot;_NEW&quot;&gt;\nhttp://mastitorrents.com/forums/index.php&lt;/a&gt;\n\nGeneral\n\nRipper : Rahul\nComplete name : Angoor (1982)\nFormat : AVI\nFormat/Info : Audio Video Interleave\nFile size : 927 MiB\nDuration : 2h 9mn\nOverall bit rate : 1 001 Kbps\nMovie name : Angoor\nWriting application : MEncoder dev-SVN-r21190-4.1.1\nWriting library : MPlayer\n\nVideo\nID : 0\nFormat : MPEG-4 Visual\nFormat profile : Simple@L1\nFormat settings, BVOP : No\nFormat settings, QPel : No\nFormat settings, GMC : No warppoints\nFormat settings, Matrix : Default (H.263)\nCodec ID : DIVX\nCodec ID/Info : Project Mayo\nCodec ID/Hint : DivX 4\nDuration : 2h 9mn\nBit rate : 859 Kbps\nWidth : 480 pixels\nHeight : 360 pixels\nDisplay aspect ratio : 4:3\nFrame rate : 29.970 fps\nColor space : YUV\nChroma subsampling : 4:2:0\nBit depth : 8 bits\nScan type : Progressive\nBits/(Pixel*Frame) : 0.166\nStream size : 796 MiB (86%)\nWriting library : Lavc51.25.0\n\nAudio\nID : 1\nFormat : MPEG Audio\nFormat version : Version 1\nFormat profile : Layer 3\nMode : Joint stereo\nMode extension : MS Stereo\nCodec ID : 55\nCodec ID/Hint : MP3\nDuration : 2h 9mn\nBit rate mode : Constant\nBit rate : 128 Kbps\nChannel(s) : 2 channels\nSampling rate : 48.0 KHz\nStream size : 119 MiB (13%)","torrent":{"xt":"urn:btih:a2942b8698b95632488a446536744f53bebbbf49","amp;dn":"Angoor+%281982%29+Hindi+DvD+Rip+Xvid+XMR%40Mastitorrents","amp;tr":["udp%3A%2F%2Ftracker.openbittorrent.com%3A80","udp%3A%2F%2Fopen.demonii.com%3A1337","udp%3A%2F%2Ftracker.coppersurfer.tk%3A6969","udp%3A%2F%2Fexodus.desync.com%3A6969"],"infoHash":"a2942b8698b95632488a446536744f53bebbbf49","infoHashBuffer":{"type":"Buffer","data":[162,148,43,134,152,185,86,50,72,138,68,101,54,116,79,83,190,187,191,73]},"announce":[],"urlList":[]}}